<?xml version="1.0" standalone="no"?>
<!DOCTYPE svg PUBLIC "-//W3C//DTD SVG 20010904//EN"
 "http://www.w3.org/TR/2001/REC-SVG-20010904/DTD/svg10.dtd">
<svg version="1.0" xmlns="http://www.w3.org/2000/svg"
 width="300.000000pt" height="175.000000pt" viewBox="0 0 300.000000 175.000000"
 preserveAspectRatio="xMidYMid meet">
<metadata>
Created by potrace 1.10, written by Peter Selinger 2001-2011
</metadata>
<g transform="translate(0.000000,175.000000) scale(0.100000,-0.100000)"
fill="#000000" stroke="none">
<path d="M692 1640 c-82 -41 -150 -82 -164 -98 l-23 -29 -40 76 c-38 71 -43
76 -77 79 -30 3 -42 -3 -76 -35 -21 -21 -51 -46 -66 -57 -24 -16 -27 -23 -21
-52 9 -52 36 -109 44 -96 4 7 21 -8 45 -41 l37 -52 -38 41 c-36 38 -40 40 -78
32 -66 -14 -113 -76 -136 -178 -6 -25 -20 -55 -31 -67 -18 -19 -19 -26 -10
-50 6 -15 12 -39 14 -53 2 -18 10 -26 28 -28 14 -2 29 -8 35 -13 5 -5 17 -9
27 -9 10 0 18 -4 18 -10 0 -5 13 -10 28 -10 15 0 33 -5 39 -11 7 -7 17 -8 30
-1 10 6 31 8 46 5 17 -3 57 5 102 22 91 33 164 95 202 169 14 28 42 76 63 106
45 68 104 172 149 265 42 86 48 158 15 163 -11 2 -84 -29 -162 -68z m171 18
c-1 -15 -11 -46 -22 -70 l-21 -43 5 60 c2 33 4 66 5 73 0 8 8 12 18 10 11 -3
16 -12 15 -30z m-51 -55 c2 -43 0 -82 -5 -88 -5 -6 -5 -1 -2 10 6 18 5 18 -5
2 -6 -9 -8 -22 -4 -29 5 -7 3 -8 -6 -3 -10 6 -12 4 -6 -11 5 -15 4 -16 -5 -7
-9 9 -9 19 0 44 6 17 11 61 11 95 0 91 18 79 22 -13z m-377 6 c29 -44 30 -49
12 -49 -11 0 -57 75 -57 93 0 15 21 -5 45 -44z m324 -111 c-12 -43 -26 -78
-31 -78 -6 0 -8 10 -5 23 53 228 52 224 55 177 2 -26 -6 -78 -19 -122z m-360
98 c31 -53 38 -76 24 -76 -14 1 -84 110 -78 120 12 19 24 10 54 -44z m351 47
c0 -22 -35 -169 -42 -177 -4 -6 -8 28 -8 73 0 68 3 86 18 97 19 15 32 18 32 7z
m-382 -79 c18 -23 32 -45 32 -48 0 -17 -30 -2 -65 34 -33 33 -36 41 -25 55 7
9 16 12 20 8 3 -4 21 -27 38 -49z m312 -37 c0 -54 -5 -90 -13 -102 -12 -16
-15 -11 -20 45 -13 117 -9 136 26 139 4 1 7 -36 7 -82z m-51 -51 c7 -77 6
-106 -5 -130 -7 -17 -14 -29 -15 -26 0 3 -9 57 -19 120 l-17 115 21 17 c12 9
22 14 23 10 2 -4 7 -52 12 -106z m-312 72 c40 -38 41 -44 8 -50 -20 -4 -29 1
-45 29 -36 62 -17 73 37 21z m-35 -77 c-9 -24 -42 27 -42 63 l0 31 23 -40 c13
-22 21 -46 19 -54z m198 53 c6 -14 10 -40 10 -57 -1 -30 -2 -29 -20 18 -23 57
-24 65 -10 65 6 0 15 -12 20 -26z m97 -110 l20 -127 -22 -71 c-25 -81 -24 -82
-55 74 -15 70 -20 121 -15 154 6 46 29 96 45 96 4 0 16 -57 27 -126z m-124 79
c3 -10 12 -35 21 -55 10 -24 12 -38 6 -38 -6 0 -17 15 -24 33 -23 54 -28 77
-18 77 5 0 12 -8 15 -17z m-41 -115 c-5 -5 -27 13 -56 47 -32 36 -43 56 -34
59 7 3 20 6 28 9 19 5 76 -101 62 -115z m11 95 c23 -44 30 -73 18 -73 -11 0
-51 71 -51 90 0 20 20 10 33 -17z m-45 -118 c-12 -13 -87 72 -88 100 0 15 12
7 49 -35 32 -36 46 -58 39 -65z m341 28 c1 -13 -20 -55 -46 -95 -25 -40 -55
-92 -65 -115 -20 -45 -38 -64 -38 -40 0 47 86 262 123 305 10 12 13 11 18 -9
4 -13 7 -34 8 -46z m-419 -21 c39 -35 42 -40 31 -61 -7 -12 -14 -21 -16 -19
-1 1 -19 24 -39 51 -58 76 -46 91 24 29z m-12 -76 c-1 -2 -33 7 -70 19 l-67
21 29 33 30 32 41 -51 c22 -28 39 -53 37 -54z m171 82 c8 -13 23 -39 34 -58
19 -35 18 -35 -22 9 -23 24 -41 50 -41 57 0 21 13 17 29 -8z m57 -136 c11 -40
-9 -45 -55 -12 -23 17 -57 38 -76 47 -40 19 -44 34 -14 64 l20 20 56 -75 c31
-42 58 -74 61 -71 3 2 -18 36 -47 75 -28 39 -51 74 -51 78 0 14 100 -104 106
-126z m-227 17 c-8 -16 -22 -19 -89 -19 -70 0 -80 2 -80 18 0 10 7 27 15 38
l14 21 75 -20 c67 -18 74 -22 65 -38z m86 5 c49 -20 39 -28 -25 -19 -42 6 -49
9 -39 21 14 18 18 17 64 -2z m29 -45 c6 -5 -18 -9 -57 -9 -61 0 -78 6 -61 23
8 8 107 -4 118 -14z m-209 -43 c-28 -35 -45 -46 -76 -51 -22 -4 -43 -4 -46 -1
-3 3 5 26 18 51 l24 45 58 0 58 0 -36 -44z m58 17 c-18 -31 -42 -53 -56 -53
-5 0 6 18 23 40 36 45 59 54 33 13z m293 -46 c20 -38 8 -49 -39 -35 -42 13
-87 59 -87 88 0 17 3 17 56 -3 40 -15 59 -28 70 -50z m-134 29 c4 -6 8 -13 8
-16 0 -3 -45 -15 -100 -26 -55 -11 -100 -17 -100 -14 0 4 9 15 20 25 11 10 22
26 25 35 5 15 15 17 73 12 37 -3 70 -10 74 -16z m35 -52 c3 -9 -229 -104 -252
-104 -3 0 -1 9 5 20 6 11 10 28 8 38 -3 14 14 21 102 38 114 24 131 25 137 8z
m-243 -9 c-7 -18 -70 -55 -95 -55 -12 0 -19 7 -19 19 0 15 12 24 48 34 62 20
72 20 66 2z m309 -40 c-42 -30 -151 -66 -205 -68 -80 -4 -89 6 -22 27 30 10
85 30 122 46 54 23 71 26 94 18 27 -10 28 -11 11 -23z m-323 -14 c0 -10 -9
-21 -19 -24 -30 -8 -35 5 -9 25 29 22 28 22 28 -1z"/>
<path d="M887 1303 c-13 -21 -35 -113 -28 -117 9 -6 8 -37 -9 -184 l-13 -112
-41 -11 c-23 -6 -74 -28 -114 -50 -41 -21 -75 -39 -76 -39 -1 0 6 64 16 142
17 138 14 178 -12 152 -15 -15 -61 -177 -55 -194 5 -13 7 -13 16 0 7 10 8 -1
4 -35 -12 -95 -14 -100 -68 -140 -113 -84 -217 -199 -217 -241 0 -43 31 -48
128 -20 132 38 123 40 128 -28 7 -98 42 -116 69 -36 16 47 16 53 1 75 -9 14
-21 25 -28 25 -7 0 -9 28 -4 93 13 180 10 172 80 211 34 19 86 44 115 56 l54
21 -8 -78 c-21 -218 -13 -390 20 -422 21 -21 28 -9 14 25 -14 36 -13 249 1
374 11 100 16 113 30 90 5 -8 12 -11 17 -7 4 5 -2 16 -14 25 l-22 17 24 180
c29 211 30 235 11 235 -8 0 -17 -3 -19 -7z m-336 -687 l-6 -109 -60 -13 c-33
-7 -73 -17 -88 -23 -31 -12 -87 -15 -87 -5 0 21 54 86 142 169 56 52 102 94
104 93 1 -2 -1 -52 -5 -112z m49 -179 c0 -18 -5 -39 -10 -47 -7 -11 -10 0 -10
38 0 33 4 51 10 47 6 -3 10 -21 10 -38z"/>
<path d="M1850 1174 c-57 -132 -127 -488 -159 -803 -10 -91 -7 -111 15 -111
17 0 20 14 34 185 19 224 65 471 122 653 7 23 16 42 21 42 4 0 5 -57 0 -127
-4 -71 -7 -216 -8 -323 0 -209 11 -284 45 -293 15 -4 18 6 24 85 8 126 59 313
113 421 13 27 22 52 19 55 -14 14 -116 -263 -116 -316 0 -8 -3 -13 -6 -9 -16
16 70 283 103 319 12 14 19 15 30 6 11 -9 12 -53 7 -247 -7 -239 0 -311 29
-311 9 0 12 67 11 258 -1 280 -6 328 -34 335 -50 13 -117 -136 -174 -388 l-14
-60 -1 65 c-1 46 -4 61 -11 50 -8 -13 -10 -13 -10 2 0 9 4 28 10 43 7 17 7 24
0 20 -6 -4 -10 22 -10 69 0 42 4 76 8 76 5 0 7 39 6 88 -2 74 -1 79 5 32 7
-46 8 -37 9 60 2 133 -2 156 -30 163 -15 4 -23 -3 -38 -39z m18 -21 c-6 -16
-23 -71 -39 -123 -15 -52 -28 -88 -28 -80 -2 26 61 230 70 230 5 0 3 -12 -3
-27z m-79 -297 c-7 -36 -14 -64 -17 -61 -2 2 1 34 8 70 7 36 14 64 17 62 2 -3
-2 -34 -8 -71z m331 -203 c-1 -114 -3 -153 -11 -140 -9 16 -2 297 7 297 2 0 4
-71 4 -157z m-212 -178 c0 -34 -1 -36 -8 -15 -4 14 -8 57 -8 95 l1 70 7 -55
c5 -30 8 -73 8 -95z"/>
<path d="M1541 956 c-7 -8 -24 -52 -39 -98 -21 -63 -32 -84 -47 -86 -30 -6
-46 -23 -67 -70 -18 -40 -42 -62 -54 -49 -3 2 -10 27 -17 53 -9 38 -17 50 -33
52 -17 2 -26 -7 -43 -42 -11 -25 -21 -50 -21 -55 0 -6 -5 -13 -11 -17 -9 -5
-10 9 -5 55 5 40 3 61 -3 61 -6 0 -13 -11 -17 -25 -6 -25 -51 -66 -86 -78 -22
-8 -31 20 -23 67 l7 34 -39 -1 c-46 -2 -67 -20 -94 -82 -16 -35 -18 -49 -9
-60 18 -22 38 -7 75 59 l35 61 0 -36 c0 -67 53 -86 106 -37 l22 19 6 -34 c4
-19 14 -38 22 -41 22 -8 24 -8 24 9 0 19 43 125 51 125 4 0 9 -17 13 -38 6
-43 37 -78 60 -69 8 3 17 -1 20 -9 11 -29 42 -15 65 31 12 25 26 45 31 45 5 0
11 15 13 33 2 17 4 5 4 -28 1 -46 -1 -54 -8 -35 -7 19 -8 14 -5 -24 2 -26 11
-55 20 -64 21 -21 31 -9 15 19 -26 49 11 281 54 337 15 19 -6 37 -22 18z
m-112 -276 c-43 -76 -45 -38 -2 43 13 24 18 28 21 15 2 -10 -7 -36 -19 -58z
m-399 54 c0 -7 -60 -94 -65 -94 -6 0 6 31 28 68 17 28 37 43 37 26z"/>
<path d="M2776 948 c-9 -12 -23 -45 -32 -73 -30 -95 -34 -103 -65 -109 -25 -5
-34 -16 -54 -61 -15 -32 -31 -55 -40 -55 -17 0 -18 3 -35 68 -17 65 -44 58
-81 -20 l-30 -63 5 63 c5 48 3 63 -7 59 -6 -2 -14 -12 -16 -23 -5 -27 -20 -43
-62 -65 -45 -22 -52 -15 -47 44 l3 42 -37 2 c-32 2 -41 -3 -62 -30 -13 -18
-30 -49 -37 -70 -11 -33 -11 -39 1 -47 19 -12 42 10 80 74 l30 51 0 -37 c0
-37 20 -68 45 -68 7 0 27 11 43 25 37 31 42 31 42 2 0 -13 6 -31 13 -42 15
-20 37 -13 37 11 0 26 42 114 51 108 5 -3 9 -18 9 -33 0 -33 42 -76 64 -68 10
4 16 1 16 -9 0 -10 8 -14 23 -12 15 2 31 19 49 53 l28 50 0 -47 c0 -53 17 -98
36 -98 10 0 11 6 4 26 -26 67 -2 243 46 336 17 34 1 47 -20 16z m-106 -258
c-13 -28 -27 -50 -32 -50 -4 0 -8 2 -8 4 0 9 33 82 42 94 22 26 21 0 -2 -48z
m-435 -10 c-36 -57 -44 -42 -9 17 15 26 29 42 31 36 2 -6 -8 -30 -22 -53z"/>
<path d="M1645 808 c-52 -162 -75 -195 -75 -109 0 28 -4 51 -9 51 -18 0 -23
-20 -16 -61 7 -42 30 -73 47 -63 16 10 48 86 48 117 0 51 18 27 22 -30 3 -54
1 -61 -33 -103 -77 -93 -120 -246 -77 -273 70 -45 161 278 125 446 -8 36 -24
49 -32 25z m9 -225 c-3 -21 -6 -44 -6 -50 -1 -7 -5 -13 -10 -13 -4 0 -8 -10
-8 -22 -1 -29 -51 -131 -67 -136 -18 -5 -16 26 7 92 18 54 76 166 86 166 2 0
1 -17 -2 -37z"/>
<path d="M2880 796 c-5 -15 -10 -29 -10 -31 0 -16 -43 -115 -50 -115 -5 0 -10
21 -12 48 -4 58 -23 54 -22 -6 0 -51 24 -82 48 -63 16 13 46 94 46 123 0 11 5
16 10 13 6 -3 10 -30 10 -59 0 -45 -5 -60 -35 -99 -40 -52 -84 -145 -92 -193
-7 -43 4 -84 22 -84 67 0 141 238 124 399 -9 85 -23 108 -39 67z m10 -205 c-6
-12 -9 -25 -6 -30 8 -12 -54 -174 -75 -196 -19 -19 -19 -19 -19 14 0 37 42
148 77 204 25 40 44 46 23 8z"/>
<path d="M568 144 c-12 -11 -10 -104 2 -104 6 0 10 12 10 26 0 34 31 29 41 -6
5 -17 7 -7 8 33 1 33 -3 56 -8 53 -5 -3 -7 -15 -4 -26 4 -15 0 -20 -15 -20
-15 0 -22 7 -24 26 -2 14 -6 22 -10 18z"/>
<path d="M698 107 c-20 -47 -25 -84 -7 -55 13 23 38 23 55 1 7 -10 14 -13 14
-7 0 11 -38 104 -43 104 -1 0 -10 -19 -19 -43z"/>
<path d="M807 143 c-11 -10 -8 -91 3 -98 6 -3 10 3 10 14 0 13 8 21 22 23 13
2 24 11 26 22 6 29 -42 59 -61 39z"/>
<path d="M917 143 c-11 -10 -8 -91 3 -98 6 -3 10 3 10 13 0 13 9 22 25 26 30
8 34 41 6 56 -23 12 -35 13 -44 3z"/>
<path d="M1027 143 c-11 -10 -8 -91 3 -98 6 -4 10 15 10 49 0 57 -1 61 -13 49z"/>
<path d="M1090 94 c0 -37 4 -53 11 -48 6 3 9 17 6 30 -2 13 0 24 4 24 5 0 9
-3 9 -7 0 -5 9 -19 20 -33 l20 -25 0 58 c0 36 -4 56 -10 52 -5 -3 -10 -18 -10
-33 l0 -27 -21 33 c-12 17 -23 32 -25 32 -2 0 -4 -25 -4 -56z"/>
<path d="M1217 143 c-4 -3 -7 -28 -7 -55 0 -47 1 -48 30 -48 17 0 30 5 30 10
0 6 -9 10 -20 10 -27 0 -25 28 3 33 l22 4 -22 2 c-28 1 -31 31 -3 31 11 0 20
5 20 10 0 11 -43 14 -53 3z"/>
<path d="M1332 138 c-20 -20 -13 -39 18 -49 17 -6 30 -16 30 -21 0 -6 -12 -8
-30 -4 -37 7 -40 -11 -3 -20 19 -5 30 -2 39 11 16 21 10 33 -22 45 -32 13 -32
34 1 26 27 -7 35 8 9 18 -22 8 -28 8 -42 -6z"/>
<path d="M1453 143 c-22 -8 -14 -43 12 -53 14 -5 25 -15 25 -21 0 -7 -9 -9
-25 -5 -14 4 -25 2 -25 -3 0 -16 20 -23 46 -17 35 9 32 44 -6 57 -36 13 -29
33 8 24 22 -5 24 -4 13 9 -14 16 -26 19 -48 9z"/>
<path d="M1630 95 c0 -35 4 -54 10 -50 6 3 10 26 10 50 0 24 -4 47 -10 50 -6
4 -10 -15 -10 -50z"/>
<path d="M1700 135 c-15 -17 -6 -33 26 -45 35 -14 31 -34 -6 -26 -37 7 -40
-11 -4 -20 17 -4 31 -1 41 9 18 18 10 35 -23 47 -32 13 -32 34 1 26 27 -7 35
8 9 18 -23 9 -30 8 -44 -9z"/>
<path d="M1888 144 c-12 -11 -10 -92 2 -99 6 -4 10 5 10 19 0 38 37 36 43 -1
2 -16 4 -1 4 32 0 33 -2 48 -4 33 -6 -38 -40 -39 -45 -2 -2 14 -6 22 -10 18z"/>
<path d="M2017 99 c-10 -28 -16 -53 -13 -56 3 -3 8 2 12 11 8 21 33 21 50 -1
7 -10 14 -13 14 -6 0 12 -37 103 -42 103 -2 0 -11 -23 -21 -51z"/>
<path d="M2180 118 l-1 -33 -23 29 -24 29 -4 -48 c-4 -52 9 -74 14 -23 l3 33
23 -35 c12 -19 22 -33 23 -30 7 36 7 100 -1 105 -6 4 -10 -7 -10 -27z"/>
<path d="M2250 96 c0 -49 2 -56 20 -56 31 0 62 37 54 63 -8 29 -14 34 -46 42
l-28 7 0 -56z m53 12 c8 -12 7 -21 -2 -32 -23 -28 -41 -19 -41 20 0 28 4 35
16 32 9 -2 22 -10 27 -20z"/>
<path d="M2457 135 c-15 -51 -20 -98 -8 -91 6 4 11 19 12 34 1 26 1 26 16 -8
l16 -35 11 28 c12 34 26 35 26 2 0 -14 5 -25 10 -25 13 0 12 4 -3 65 l-14 50
-12 -38 c-14 -42 -21 -41 -37 6 -9 28 -12 29 -17 12z"/>
<path d="M2602 98 c-21 -49 -21 -82 -1 -45 13 22 38 22 55 0 7 -10 14 -13 14
-7 0 11 -39 104 -43 104 -2 0 -13 -23 -25 -52z"/>
<path d="M2717 143 c-14 -13 -7 -93 8 -99 24 -9 65 23 65 51 0 34 -53 69 -73
48z m56 -35 c8 -12 7 -21 -2 -32 -23 -28 -41 -19 -41 20 0 28 4 35 16 32 9 -2
22 -10 27 -20z"/>
<path d="M2847 143 c-4 -3 -7 -28 -7 -55 0 -47 1 -48 30 -48 34 0 41 17 10 22
-28 4 -27 22 2 29 l23 6 -23 4 c-30 5 -33 23 -4 27 12 2 22 8 22 13 0 10 -43
12 -53 2z"/>
</g>
</svg>
